<?xml version="1.0" encoding="UTF-8" standalone="no"?><svg xmlns="http://www.w3.org/2000/svg" xmlns:xlink="http://www.w3.org/1999/xlink" fill="#000000" height="115.8" preserveAspectRatio="xMidYMid" version="1.1" viewBox="-0.0 -0.0 256.0 115.8" width="256" zoomAndPan="magnify">
 <g>
  <g transform="translate(0 -1)">
   <path d="m202.36 50.394l-5.31-2.124c-24.97 56.16-124.26 22.019-130.24 38.727-0.995 11.286 54.23 2.146 93.71 4.059 12.04 0.583 18.07 9.674 12.96 24.484l10.07 0.03c11.61-36.208 48.68-17.729 50.23-29.679-2.54-7.857-42.6 0-31.42-35.497z" fill="#ffffff"/>
   <path d="m176.33 109.35c1.59-5.31 1.06-10.624-1.59-13.811-2.66-3.187-6.38-5.311-11.16-5.842l-92.41-1.063c-0.531 0-1.062-0.531-1.593-0.531-0.531-0.531-0.531-1.062 0-1.593 0.531-1.062 1.062-1.594 2.124-1.594l92.949-1.062c11.15-0.531 22.84-9.56 27.08-20.182l5.32-13.809c0-0.532 0.53-1.063 0-1.594-5.85-27.087-30.28-47.27-58.96-47.27-26.55 0.0003-49.393 16.996-57.36 40.897-5.311-3.718-11.684-5.843-19.12-5.311-12.747 1.062-22.838 11.684-24.432 24.431-0.531 3.187 0 6.374 0.532 9.56-20.714 0.531-37.71 17.527-37.71 38.774 0 2.12 0 3.72 0.531 5.84 0 1.06 1.062 1.59 1.594 1.59h170.48c1.08 0 2.14-0.53 2.14-1.59l1.59-5.84z" fill="#f4811f"/>
   <path d="m205.54 49.863h-2.65c-0.53 0-1.06 0.531-1.6 1.062l-3.71 12.747c-1.6 5.311-1.07 10.623 1.59 13.809 2.66 3.187 6.37 5.311 11.15 5.843l19.66 1.062c0.53 0 1.06 0.531 1.59 0.531 0.53 0.531 0.53 1.062 0 1.593-0.53 1.063-1.06 1.594-2.13 1.594l-20.18 1.062c-11.15 0.531-22.84 9.56-27.09 20.184l-1.06 4.78c-0.53 0.53 0 1.59 1.06 1.59h70.11c1.06 0 1.6-0.53 1.6-1.59 1.06-4.25 2.12-9.03 2.12-13.81 0-27.619-22.84-50.457-50.46-50.457" fill="#faad3f"/>
  </g>
 </g>
</svg>