<?xml version="1.0" encoding="UTF-8" standalone="no"?><svg xmlns="http://www.w3.org/2000/svg" xmlns:xlink="http://www.w3.org/1999/xlink" fill="#ffffff" height="128" preserveAspectRatio="xMidYMid meet" version="1" viewBox="12.0 0.0 104.0 128.0" width="104" zoomAndPan="magnify"><g id="change1_1"><path d="M92,102H56.894l30.213-24.616c3.4-2.771,3.872-7.746,1.049-11.087l-4.613-5.456c-2.824-3.34-7.889-3.802-11.291-1.03 l-30.9,25.178c-0.001,0.001-0.003,0.005-0.005,0.007c-0.187,0.151-0.332,0.345-0.455,0.552c-0.032,0.054-0.062,0.105-0.087,0.163 c-0.024,0.047-0.059,0.088-0.077,0.14l-6.598,17.38c-0.037,0.098-0.048,0.198-0.069,0.299c-0.009,0.037-0.018,0.073-0.025,0.11 c-0.012,0.076-0.019,0.151-0.022,0.228C34.011,103.911,34,103.954,34,104c0,1.067,0.839,1.932,1.892,1.989 c0.004,0,0.007,0.001,0.011,0.001C35.935,105.992,35.967,106,36,106h56c1.104,0,2-0.896,2-2S93.104,102,92,102z M74.923,62.97 c1.628-1.325,4.052-1.106,5.402,0.494l4.612,5.455c1.352,1.599,1.125,3.978-0.503,5.304l-1.675,1.363l-9.511-11.251L74.923,62.97z M70.032,66.956l9.512,11.252L55.144,98.089l-9.512-11.252L70.032,66.956z M43.385,90.608l7.402,8.757l-11.467,1.947L43.385,90.608z" fill="inherit"/></g><g id="change1_2"><path d="M92,22H36c-1.105,0-2-0.896-2-2s0.895-2,2-2h56c1.104,0,2,0.896,2,2S93.104,22,92,22z" fill="inherit"/></g><g id="change1_3"><path d="M92,30H36c-1.105,0-2-0.896-2-2s0.895-2,2-2h56c1.104,0,2,0.896,2,2S93.104,30,92,30z" fill="inherit"/></g><g id="change1_4"><path d="M92,38H36c-1.105,0-2-0.896-2-2s0.895-2,2-2h56c1.104,0,2,0.896,2,2S93.104,38,92,38z" fill="inherit"/></g><g id="change1_5"><path d="M92,46H36c-1.105,0-2-0.896-2-2s0.895-2,2-2h56c1.104,0,2,0.896,2,2S93.104,46,92,46z" fill="inherit"/></g><g id="change1_6"><path d="M92,54H36c-1.105,0-2-0.896-2-2s0.895-2,2-2h56c1.104,0,2,0.896,2,2S93.104,54,92,54z" fill="inherit"/></g><g id="change1_7"><path d="M108,4c2.206,0,4,1.794,4,4v112c0,2.206-1.794,4-4,4H20c-2.206,0-4-1.794-4-4V8c0-2.206,1.794-4,4-4H108 M108,0H20 c-4.418,0-8,3.582-8,8v112c0,4.418,3.582,8,8,8h88c4.418,0,8-3.582,8-8V8C116,3.582,112.418,0,108,0L108,0z" fill="inherit"/></g></svg>