<?xml version="1.0" encoding="UTF-8" standalone="no"?><svg xmlns="http://www.w3.org/2000/svg" xmlns:xlink="http://www.w3.org/1999/xlink" fill="#000000" height="49.3" preserveAspectRatio="xMidYMid meet" version="1" viewBox="0.0 0.0 61.2 49.3" width="61.2" zoomAndPan="magnify"><defs><clipPath id="a"><path d="M 0 0 L 61.199219 0 L 61.199219 49.25 L 0 49.25 Z M 0 0"/></clipPath></defs><g><g clip-path="url(#a)" id="change1_1"><path d="M 55.84375 37.472656 C 56.503906 37.472656 57.042969 38.007812 57.042969 38.671875 C 57.042969 39.332031 56.503906 39.871094 55.839844 39.871094 C 55.179688 39.871094 54.640625 39.332031 54.640625 38.671875 C 54.640625 38.007812 55.179688 37.472656 55.84375 37.472656 Z M 40.023438 37.632812 C 40.683594 37.632812 41.222656 38.171875 41.222656 38.832031 C 41.222656 39.492188 40.683594 40.03125 40.023438 40.03125 C 39.359375 40.03125 38.824219 39.492188 38.824219 38.832031 C 38.824219 38.171875 39.359375 37.632812 40.023438 37.632812 Z M 59.097656 44.871094 C 59.757812 44.871094 60.296875 45.40625 60.296875 46.070312 C 60.296875 46.730469 59.757812 47.269531 59.097656 47.269531 C 58.433594 47.269531 57.894531 46.730469 57.894531 46.070312 C 57.894531 45.40625 58.433594 44.871094 59.097656 44.871094 Z M 25.03125 21.5 L 9.65625 21.5 L 9.65625 12.683594 C 9.65625 8.445312 13.105469 4.996094 17.34375 4.996094 C 21.582031 4.996094 25.03125 8.445312 25.03125 12.683594 Z M 20.585938 44.5625 L 14.039062 44.5625 L 15.695312 33.21875 C 14.613281 32.640625 13.875 31.5 13.875 30.1875 C 13.875 28.289062 15.414062 26.75 17.3125 26.75 C 19.210938 26.75 20.75 28.289062 20.75 30.1875 C 20.75 31.5 20.015625 32.640625 18.933594 33.21875 Z M 55.210938 1.976562 C 55.871094 1.976562 56.410156 2.515625 56.410156 3.175781 C 56.410156 3.839844 55.871094 4.378906 55.210938 4.378906 C 54.546875 4.378906 54.007812 3.839844 54.007812 3.175781 C 54.007812 2.515625 54.546875 1.976562 55.210938 1.976562 Z M 42.644531 11.96875 C 43.304688 11.96875 43.84375 12.507812 43.84375 13.171875 C 43.84375 13.832031 43.304688 14.371094 42.644531 14.371094 C 41.984375 14.371094 41.445312 13.832031 41.445312 13.171875 C 41.445312 12.507812 41.984375 11.96875 42.644531 11.96875 Z M 54.578125 15.636719 C 55.238281 15.636719 55.777344 16.175781 55.777344 16.835938 C 55.777344 17.5 55.238281 18.035156 54.578125 18.035156 C 53.914062 18.035156 53.375 17.5 53.375 16.835938 C 53.375 16.175781 53.914062 15.636719 54.578125 15.636719 Z M 59.097656 23.078125 C 59.757812 23.078125 60.296875 23.617188 60.296875 24.277344 C 60.296875 24.941406 59.757812 25.480469 59.097656 25.480469 C 58.433594 25.480469 57.894531 24.941406 57.894531 24.277344 C 57.894531 23.617188 58.433594 23.078125 59.097656 23.078125 Z M 51.683594 26.652344 C 52.34375 26.652344 52.882812 27.191406 52.882812 27.855469 C 52.882812 28.515625 52.34375 29.054688 51.683594 29.054688 C 51.023438 29.054688 50.484375 28.515625 50.484375 27.855469 C 50.484375 27.191406 51.023438 26.652344 51.683594 26.652344 Z M 40.023438 26.652344 C 40.683594 26.652344 41.222656 27.191406 41.222656 27.855469 C 41.222656 28.515625 40.683594 29.054688 40.023438 29.054688 C 39.359375 29.054688 38.824219 28.515625 38.824219 27.855469 C 38.824219 27.191406 39.359375 26.652344 40.023438 26.652344 Z M 59.097656 30.300781 C 59.757812 30.300781 60.296875 30.839844 60.296875 31.5 C 60.296875 32.160156 59.757812 32.699219 59.097656 32.699219 C 58.433594 32.699219 57.894531 32.160156 57.894531 31.5 C 57.894531 30.839844 58.433594 30.300781 59.097656 30.300781 Z M 57.042969 31.953125 C 57.25 32.894531 58.089844 33.605469 59.097656 33.605469 C 60.257812 33.605469 61.199219 32.660156 61.199219 31.5 C 61.199219 30.339844 60.257812 29.394531 59.097656 29.394531 C 58.089844 29.394531 57.25 30.105469 57.042969 31.046875 L 34.691406 31.046875 L 34.691406 28.285156 L 37.964844 28.285156 C 38.164062 29.238281 39.011719 29.957031 40.023438 29.957031 C 41.183594 29.957031 42.128906 29.015625 42.128906 27.855469 C 42.128906 26.695312 41.183594 25.75 40.023438 25.75 C 39.023438 25.75 38.1875 26.449219 37.972656 27.382812 L 34.691406 27.382812 L 34.691406 24.621094 L 43.8125 24.621094 L 47.5 28.304688 L 49.628906 28.304688 C 49.835938 29.25 50.679688 29.957031 51.683594 29.957031 C 52.84375 29.957031 53.789062 29.015625 53.789062 27.855469 C 53.789062 26.695312 52.84375 25.75 51.683594 25.75 C 50.679688 25.75 49.835938 26.457031 49.628906 27.402344 L 47.875 27.402344 L 44.1875 23.714844 L 34.570312 23.714844 C 34.199219 22.4375 33.019531 21.5 31.621094 21.5 L 30.03125 21.5 L 30.03125 20.953125 L 48.152344 20.953125 L 51.929688 24.730469 L 57.042969 24.730469 C 57.25 25.675781 58.089844 26.382812 59.097656 26.382812 C 60.257812 26.382812 61.199219 25.4375 61.199219 24.277344 C 61.199219 23.117188 60.257812 22.175781 59.097656 22.175781 C 58.089844 22.175781 57.25 22.882812 57.042969 23.828125 L 52.304688 23.828125 L 48.527344 20.050781 L 30.03125 20.050781 L 30.03125 17.289062 L 52.523438 17.289062 C 52.730469 18.230469 53.570312 18.941406 54.578125 18.941406 C 55.738281 18.941406 56.679688 17.996094 56.679688 16.835938 C 56.679688 15.675781 55.738281 14.730469 54.578125 14.730469 C 53.570312 14.730469 52.730469 15.441406 52.523438 16.382812 L 30.03125 16.382812 L 30.03125 13.621094 L 40.589844 13.621094 C 40.796875 14.566406 41.640625 15.273438 42.644531 15.273438 C 43.804688 15.273438 44.75 14.332031 44.75 13.171875 C 44.75 12.011719 43.804688 11.066406 42.644531 11.066406 C 41.640625 11.066406 40.796875 11.773438 40.589844 12.71875 L 30.03125 12.71875 L 30.03125 12.683594 C 30.03125 11.75 29.929688 10.835938 29.738281 9.957031 L 42.832031 9.957031 L 49.160156 3.628906 L 53.15625 3.628906 C 53.363281 4.574219 54.203125 5.28125 55.210938 5.28125 C 56.371094 5.28125 57.3125 4.335938 57.3125 3.175781 C 57.3125 2.015625 56.371094 1.074219 55.210938 1.074219 C 54.203125 1.074219 53.363281 1.78125 53.15625 2.726562 L 48.785156 2.726562 L 42.457031 9.050781 L 29.503906 9.050781 C 27.9375 3.820312 23.078125 -0.00390625 17.34375 -0.00390625 C 10.347656 -0.00390625 4.65625 5.6875 4.65625 12.683594 L 4.65625 21.5 L 3.066406 21.5 C 1.375 21.5 0 22.871094 0 24.566406 L 0 46.183594 C 0 47.875 1.375 49.25 3.066406 49.25 L 31.621094 49.25 C 33.316406 49.25 34.691406 47.875 34.691406 46.183594 L 34.691406 42.949219 L 50.863281 42.949219 L 54.4375 46.523438 L 57.042969 46.523438 C 57.25 47.464844 58.089844 48.175781 59.097656 48.175781 C 60.257812 48.175781 61.199219 47.230469 61.199219 46.070312 C 61.199219 44.910156 60.257812 43.964844 59.097656 43.964844 C 58.089844 43.964844 57.25 44.675781 57.042969 45.617188 L 54.808594 45.617188 L 51.238281 42.046875 L 34.691406 42.046875 L 34.691406 39.285156 L 37.96875 39.285156 C 38.175781 40.226562 39.019531 40.9375 40.023438 40.9375 C 41.183594 40.9375 42.128906 39.992188 42.128906 38.832031 C 42.128906 37.671875 41.183594 36.726562 40.023438 36.726562 C 39.019531 36.726562 38.175781 37.4375 37.96875 38.378906 L 34.691406 38.378906 L 34.691406 35.617188 L 42.457031 35.617188 L 45.960938 39.125 L 53.785156 39.125 C 53.996094 40.066406 54.835938 40.777344 55.839844 40.777344 C 57.003906 40.777344 57.945312 39.832031 57.945312 38.671875 C 57.945312 37.511719 57.003906 36.566406 55.84375 36.566406 C 54.835938 36.566406 53.996094 37.277344 53.785156 38.21875 L 46.335938 38.21875 L 42.832031 34.714844 L 34.691406 34.714844 L 34.691406 31.953125 L 57.042969 31.953125" fill="#ffffff"/></g></g></svg>