<?xml version="1.0" encoding="UTF-8" standalone="no"?><svg xmlns="http://www.w3.org/2000/svg" xmlns:xlink="http://www.w3.org/1999/xlink" fill="#000000" height="21.4" preserveAspectRatio="xMidYMid meet" version="1" viewBox="0.3 1.4 23.4 21.4" width="23.4" zoomAndPan="magnify">
 <g id="change1_1"><path d="m15.537 22.716a0.456 0.456 0 0 1 -0.111 0.014l-0.082-0.075v-0.638c0-0.594 0.01-1.493 0.01-2.522a3.923 3.923 0 0 0 -0.378 -1.758c2.281-0.412 4.837-1.644 4.837-6.056a4.928 4.928 0 0 0 -1.114 -3.2 4.828 4.828 0 0 0 -0.214 -3.121 0.5 0.5 0 0 0 -0.311 -0.292 1.384 1.384 0 0 0 -0.41 -0.051 5.721 5.721 0 0 0 -2.985 1.166 11.779 11.779 0 0 0 -2.779 -0.348 11.523 11.523 0 0 0 -2.78 0.346 5.725 5.725 0 0 0 -2.989 -1.166 1.39 1.39 0 0 0 -0.41 0.051 0.5 0.5 0 0 0 -0.311 0.293 4.816 4.816 0 0 0 -0.21 3.121 4.928 4.928 0 0 0 -1.115 3.2c0 4.41 2.554 5.648 4.83 6.064a3.409 3.409 0 0 0 -0.278 0.8 2.574 2.574 0 0 1 -0.851 0.156 1.645 1.645 0 0 1 -1.105 -0.394 0.426 0.426 0 0 0 -0.107 -0.1 2.9 2.9 0 0 1 -0.193 -0.236l-0.02-0.024a0.211 0.211 0 0 0 -0.018 -0.027l-0.084-0.108a1.111 1.111 0 0 1 -0.076 -0.1 2.921 2.921 0 0 0 -2.2 -1.447c-0.531 0-0.883 0.187-0.989 0.529-0.166 0.535 0.414 0.934 0.694 1.119a2.587 2.587 0 0 1 1.012 1.388 3.188 3.188 0 0 0 3.187 2.033 5.218 5.218 0 0 0 0.66 -0.043l0.012 1.369-0.089 0.072c-0.031 0-0.068 0-0.036 0.008a10.964 10.964 0 1 1 7 -0.019z" fill="inherit"/></g>
</svg>