<?xml version="1.0" encoding="UTF-8" standalone="no"?><svg xmlns="http://www.w3.org/2000/svg" xmlns:xlink="http://www.w3.org/1999/xlink" fill="#ffffff" height="58" preserveAspectRatio="xMidYMid meet" version="1" viewBox="0.0 0.0 59.0 58.0" width="59" zoomAndPan="magnify"><g id="change1_1"><path d="M 33 28 L 31 28 L 31 14 L 27 14 L 27 30 L 33 30 L 33 28" fill="inherit"/><path d="M 27 40 L 31 40 L 31 32 L 27 32 L 27 40" fill="inherit"/><path d="M 25 20 L 21 20 L 21 30 L 25 30 L 25 20" fill="inherit"/><path d="M 35.851562 34.617188 C 35.792969 34.472656 35.546875 34 34.929688 34 L 33 34 L 33 40 L 37.199219 40 L 34.273438 37.074219 L 35.636719 35.707031 C 36.074219 35.269531 35.914062 34.761719 35.851562 34.617188" fill="inherit"/><path d="M 37 8 L 33 8 L 33 26 L 34.929688 26 C 35.546875 26 35.792969 25.527344 35.851562 25.382812 C 35.914062 25.238281 36.074219 24.730469 35.636719 24.292969 L 34.273438 22.925781 L 37 20.199219 L 37 8" fill="inherit"/><path d="M 25 32 L 22.523438 32 L 25 34.0625 Z M 25 32" fill="inherit"/><path d="M 25 35.9375 L 21.632812 38.742188 C 21.699219 39.160156 21.757812 39.578125 21.804688 40 L 25 40 L 25 35.9375" fill="inherit"/><path d="M 18.921875 29 L 19 29.0625 L 19 18 L 25 18 L 25 12 L 31 12 L 31 6 L 39 6 L 39 18.199219 L 39.925781 17.273438 L 41.292969 18.636719 C 41.730469 19.078125 42.238281 18.910156 42.382812 18.851562 C 42.527344 18.792969 43 18.546875 43 17.929688 L 43 16 L 45 16 L 45 14.964844 C 45 10.820312 43.234375 6.855469 40.15625 4.085938 L 39.789062 3.757812 C 37.097656 1.335938 33.621094 0 30 0 C 26.378906 0 22.902344 1.335938 20.207031 3.757812 L 19.84375 4.085938 C 16.765625 6.855469 15 10.820312 15 14.964844 L 15 15.617188 C 15 20.273438 16.164062 24.902344 18.367188 29 L 18.921875 29" fill="inherit"/><path d="M 23 35 L 17 30 L 17 33 L 7 33 C 5.34375 33 4 31.65625 4 30 C 4 28.34375 5.34375 27 7 27 L 15.226562 27 C 14.703125 25.699219 14.273438 24.359375 13.929688 23 L 7 23 C 3.132812 23 0 26.132812 0 30 C 0 33.867188 3.132812 37 7 37 L 17 37 L 17 40 L 23 35" fill="inherit"/><path d="M 30 58 C 34.410156 58 38 54.414062 38 50 L 22 50 C 22 54.410156 25.589844 58 30 58" fill="inherit"/><path d="M 47 37 C 43.132812 37 40 33.867188 40 30 C 40 26.132812 43.132812 23 47 23 C 50.867188 23 54 26.132812 54 30 C 54 33.867188 50.867188 37 47 37 Z M 56.296875 26.148438 C 55.835938 25.027344 56.066406 23.800781 56.902344 22.929688 L 54.070312 20.097656 C 53.203125 20.933594 51.976562 21.164062 50.851562 20.703125 C 49.730469 20.238281 49.027344 19.207031 49 18 L 45 18 C 44.972656 19.207031 44.269531 20.238281 43.148438 20.703125 C 42.027344 21.164062 40.800781 20.933594 39.929688 20.097656 L 37.097656 22.929688 C 37.933594 23.800781 38.164062 25.027344 37.703125 26.148438 C 37.238281 27.269531 36.207031 27.972656 35 28 L 35 32 C 36.207031 32.027344 37.238281 32.730469 37.703125 33.851562 C 38.164062 34.972656 37.933594 36.199219 37.097656 37.070312 L 39.929688 39.902344 C 40.800781 39.070312 42.027344 38.835938 43.148438 39.296875 C 44.269531 39.761719 44.972656 40.792969 45 42 L 49 42 C 49.027344 40.792969 49.730469 39.761719 50.851562 39.296875 C 51.972656 38.835938 53.199219 39.066406 54.070312 39.902344 L 56.902344 37.070312 C 56.066406 36.199219 55.835938 34.972656 56.296875 33.851562 C 56.761719 32.730469 57.792969 32.027344 59 32 L 59 28 C 57.792969 27.972656 56.761719 27.269531 56.296875 26.148438" fill="inherit"/><path d="M 22 43.382812 L 22 44 L 38 44 L 38 42 L 21.964844 42 C 21.984375 42.460938 22 42.921875 22 43.382812" fill="inherit"/><path d="M 22 48 L 38 48 L 38 46 L 22 46 L 22 48" fill="inherit"/><path d="M 47 27 C 45.34375 27 44 28.34375 44 30 C 44 31.65625 45.34375 33 47 33 C 48.65625 33 50 31.65625 50 30 C 50 28.34375 48.65625 27 47 27" fill="inherit"/></g></svg>