<?xml version="1.0" encoding="UTF-8" standalone="no"?><svg xmlns="http://www.w3.org/2000/svg" xmlns:xlink="http://www.w3.org/1999/xlink" fill="#000000" height="164.2" preserveAspectRatio="xMidYMid meet" version="1" viewBox="0.0 0.0 245.8 164.2" width="245.8" zoomAndPan="magnify"><defs><clipPath id="a"><path d="M 0 43 L 123 43 L 123 164 L 0 164 Z M 0 43"/></clipPath><clipPath id="b"><path d="M 32.605469 64.140625 C 31.835938 66.949219 21.222656 106.304688 27.585938 123.542969 C 28.390625 125.726562 30.117188 130.40625 34.734375 133.757812 C 40.964844 138.28125 48.234375 137.175781 49.273438 137.003906 C 56.914062 135.746094 61.765625 130.050781 64.863281 126.269531 C 77.59375 110.722656 88.429688 93.683594 94.394531 83.882812 L 110.480469 57.246094 L 122.585938 76.394531 C 100.597656 118.957031 79.585938 148.296875 67.839844 156.054688 C 61.679688 160.125 55.210938 161.988281 55.210938 161.988281 C 52.019531 162.910156 42.28125 165.582031 31.332031 162.183594 C 17.367188 157.855469 10.394531 146.441406 7.839844 142.269531 C 4.207031 136.324219 0.25 127.109375 0.0117188 108.226562 C -0.15625 94.898438 1.464844 71.773438 13.796875 43.886719 C 20.066406 50.636719 26.335938 57.390625 32.605469 64.140625 Z M 32.605469 64.140625"/></clipPath><clipPath id="c"><path d="M 32.605469 64.140625 C 31.835938 66.949219 21.222656 106.304688 27.585938 123.542969 C 28.390625 125.726562 30.117188 130.40625 34.734375 133.757812 C 40.964844 138.28125 48.234375 137.175781 49.273438 137.003906 C 56.914062 135.746094 61.765625 130.050781 64.863281 126.269531 C 77.59375 110.722656 88.429688 93.683594 94.394531 83.882812 L 110.480469 57.246094 L 122.585938 76.394531 C 100.597656 118.957031 79.585938 148.296875 67.839844 156.054688 C 61.679688 160.125 55.210938 161.988281 55.210938 161.988281 C 52.019531 162.910156 42.28125 165.582031 31.332031 162.183594 C 17.367188 157.855469 10.394531 146.441406 7.839844 142.269531 C 4.207031 136.324219 0.25 127.109375 0.0117188 108.226562 C -0.15625 94.898438 1.464844 71.773438 13.796875 43.886719 C 20.066406 50.636719 26.335938 57.390625 32.605469 64.140625"/></clipPath><clipPath id="e"><path d="M 124 1 L 245 1 L 245 88 L 124 88 Z M 124 1"/></clipPath><clipPath id="f"><path d="M 124.011719 37.585938 C 125.847656 35.074219 128.507812 31.59375 131.925781 27.628906 C 140.371094 17.839844 144.867188 12.597656 151.839844 8.480469 C 165.863281 0.199219 180.621094 1.886719 184.011719 2.355469 C 194.429688 3.792969 201.601562 8.132812 205.457031 10.523438 C 218.265625 18.460938 224.746094 29.023438 228.945312 36.054688 C 236.570312 48.8125 239.78125 60.601562 241.96875 72.054688 C 242.402344 74.328125 244.785156 87.28125 244.785156 87.28125 L 221.644531 83.882812 C 220.878906 79.703125 219.605469 73.824219 217.457031 66.949219 C 215.414062 60.414062 213.167969 53.21875 209.285156 46.523438 C 207.164062 42.863281 194.71875 21.378906 176.351562 21.503906 C 167.949219 21.558594 161.441406 26.117188 157.457031 28.90625 C 150.21875 33.976562 145.929688 40.433594 141.371094 47.289062 C 138.335938 51.859375 136.164062 55.894531 134.726562 58.785156 C 131.152344 51.71875 127.582031 44.652344 124.011719 37.585938 Z M 124.011719 37.585938"/></clipPath><clipPath id="g"><path d="M 124.011719 37.585938 C 125.847656 35.074219 128.507812 31.59375 131.925781 27.628906 C 140.371094 17.839844 144.867188 12.597656 151.839844 8.480469 C 165.863281 0.199219 180.621094 1.886719 184.011719 2.355469 C 194.429688 3.792969 201.601562 8.132812 205.457031 10.523438 C 218.265625 18.460938 224.746094 29.023438 228.945312 36.054688 C 236.570312 48.8125 239.78125 60.601562 241.96875 72.054688 C 242.402344 74.328125 244.785156 87.28125 244.785156 87.28125 L 221.644531 83.882812 C 220.878906 79.703125 219.605469 73.824219 217.457031 66.949219 C 215.414062 60.414062 213.167969 53.21875 209.285156 46.523438 C 207.164062 42.863281 194.71875 21.378906 176.351562 21.503906 C 167.949219 21.558594 161.441406 26.117188 157.457031 28.90625 C 150.21875 33.976562 145.929688 40.433594 141.371094 47.289062 C 138.335938 51.859375 136.164062 55.894531 134.726562 58.785156 C 131.152344 51.71875 127.582031 44.652344 124.011719 37.585938"/></clipPath><clipPath id="i"><path d="M 12 0 L 245.761719 0 L 245.761719 164.199219 L 12 164.199219 Z M 12 0"/></clipPath><linearGradient gradientTransform="translate(0 103.872) scale(122.585)" gradientUnits="userSpaceOnUse" id="d" x1="0" x2="1" xlink:actuate="onLoad" xlink:show="other" xlink:type="simple" y1="0" y2="0"><stop offset="0" stop-color="#0a69e1"/><stop offset="0.125" stop-color="#0a69e1"/><stop offset="0.188" stop-color="#0a69e1"/><stop offset="0.203" stop-color="#0a6ae2"/><stop offset="0.219" stop-color="#096be3"/><stop offset="0.234" stop-color="#096be3"/><stop offset="0.25" stop-color="#096ce4"/><stop offset="0.266" stop-color="#096ce4"/><stop offset="0.281" stop-color="#096de5"/><stop offset="0.297" stop-color="#096de6"/><stop offset="0.313" stop-color="#086ee6"/><stop offset="0.328" stop-color="#086ee7"/><stop offset="0.344" stop-color="#086fe7"/><stop offset="0.359" stop-color="#0870e8"/><stop offset="0.375" stop-color="#0870e8"/><stop offset="0.391" stop-color="#0771e9"/><stop offset="0.406" stop-color="#0771ea"/><stop offset="0.422" stop-color="#0772ea"/><stop offset="0.438" stop-color="#0772eb"/><stop offset="0.453" stop-color="#0773eb"/><stop offset="0.469" stop-color="#0773ec"/><stop offset="0.484" stop-color="#0674ec"/><stop offset="0.5" stop-color="#0675ed"/><stop offset="0.516" stop-color="#0675ee"/><stop offset="0.531" stop-color="#0676ee"/><stop offset="0.547" stop-color="#0676ef"/><stop offset="0.563" stop-color="#0577ef"/><stop offset="0.578" stop-color="#0577f0"/><stop offset="0.594" stop-color="#0578f0"/><stop offset="0.609" stop-color="#0578f1"/><stop offset="0.625" stop-color="#0579f2"/><stop offset="0.641" stop-color="#0479f2"/><stop offset="0.656" stop-color="#047af3"/><stop offset="0.672" stop-color="#047bf3"/><stop offset="0.688" stop-color="#047bf4"/><stop offset="0.703" stop-color="#047cf4"/><stop offset="0.719" stop-color="#047cf5"/><stop offset="0.734" stop-color="#037df6"/><stop offset="0.75" stop-color="#037df6"/><stop offset="0.766" stop-color="#037ef7"/><stop offset="0.781" stop-color="#037ef7"/><stop offset="0.797" stop-color="#037ff8"/><stop offset="0.813" stop-color="#0280f9"/><stop offset="0.828" stop-color="#0280f9"/><stop offset="0.844" stop-color="#0281fa"/><stop offset="0.875" stop-color="#0281fa"/><stop offset="1" stop-color="#0281fa"/></linearGradient><linearGradient gradientTransform="scale(120.7746) rotate(22.591 .159 2.855)" gradientUnits="userSpaceOnUse" id="h" x1="-0.136" x2="1.064" xlink:actuate="onLoad" xlink:show="other" xlink:type="simple" y1="0" y2="0"><stop offset="0" stop-color="#0281fa"/><stop offset="0.25" stop-color="#0281fa"/><stop offset="0.313" stop-color="#0281fa"/><stop offset="0.344" stop-color="#0281fa"/><stop offset="0.359" stop-color="#0281fa"/><stop offset="0.375" stop-color="#0280f9"/><stop offset="0.391" stop-color="#037ff8"/><stop offset="0.406" stop-color="#037ef7"/><stop offset="0.422" stop-color="#037df6"/><stop offset="0.438" stop-color="#047cf5"/><stop offset="0.453" stop-color="#047bf4"/><stop offset="0.469" stop-color="#047af3"/><stop offset="0.484" stop-color="#0579f2"/><stop offset="0.5" stop-color="#0579f1"/><stop offset="0.516" stop-color="#0578f0"/><stop offset="0.531" stop-color="#0577ef"/><stop offset="0.547" stop-color="#0676ef"/><stop offset="0.563" stop-color="#0675ee"/><stop offset="0.578" stop-color="#0674ed"/><stop offset="0.594" stop-color="#0674ec"/><stop offset="0.609" stop-color="#0773eb"/><stop offset="0.625" stop-color="#0772ea"/><stop offset="0.641" stop-color="#0771ea"/><stop offset="0.656" stop-color="#0771e9"/><stop offset="0.672" stop-color="#0870e8"/><stop offset="0.688" stop-color="#086fe7"/><stop offset="0.703" stop-color="#086ee7"/><stop offset="0.719" stop-color="#086ee6"/><stop offset="0.734" stop-color="#096de5"/><stop offset="0.75" stop-color="#096ce4"/><stop offset="0.766" stop-color="#096ce4"/><stop offset="0.781" stop-color="#096be3"/><stop offset="0.797" stop-color="#096be3"/><stop offset="0.813" stop-color="#0a6ae2"/><stop offset="0.875" stop-color="#0a69e1"/><stop offset="1" stop-color="#0a69e1"/></linearGradient></defs><g><g clip-path="url(#a)"><g clip-path="url(#b)"><g clip-path="url(#c)"><path d="M 0 43.886719 L 0 164.199219 L 122.585938 164.199219 L 122.585938 43.886719 Z M 0 43.886719" fill="url(#d)"/></g></g></g><g clip-path="url(#e)"><g clip-path="url(#f)"><g clip-path="url(#g)"><path d="M 141.832031 -42.632812 L 93.125 74.433594 L 226.960938 130.117188 L 275.671875 13.050781 Z M 141.832031 -42.632812" fill="url(#h)"/></g></g></g><g clip-path="url(#i)" id="change1_1"><path d="M 12.847656 46.078125 C 16.636719 37 25.089844 20.738281 42.308594 9.503906 C 46.957031 6.46875 54.046875 2.121094 64.277344 0.496094 C 71.582031 -0.664062 80.5625 -0.0078125 92.097656 4.652344 C 118.648438 15.375 145.457031 61.585938 145.457031 61.585938 C 166.65625 102.082031 185.378906 129.882812 192.945312 134.097656 C 198.046875 136.9375 202.988281 137.078125 202.988281 137.078125 C 207.675781 137.210938 211.46875 135.617188 213.796875 134.355469 C 215.296875 133.257812 217.386719 131.480469 219.246094 128.820312 C 222.308594 124.441406 223.273438 119.769531 223.671875 114.523438 C 224.785156 99.804688 221.332031 81.753906 220.523438 77.671875 C 223.089844 77.671875 225.914062 77.8125 228.945312 78.183594 C 234.859375 78.90625 239.933594 80.296875 244.011719 81.757812 C 245.417969 90.507812 250.347656 125.941406 233.285156 149.160156 C 230.808594 152.535156 226.40625 158.375 218.507812 161.730469 C 204.914062 167.503906 191.203125 161.5625 187.328125 159.886719 C 178.238281 155.945312 172.441406 150.117188 166.648438 143.542969 C 151.992188 126.914062 143.414062 112.625 127.074219 85.078125 C 123.640625 79.285156 117.847656 69.539062 110.480469 57.246094 C 100.441406 36.535156 82.785156 24.191406 68.117188 26.757812 C 55.496094 28.964844 45.652344 42.101562 41.796875 47.289062 C 37.085938 53.632812 34.289062 59.703125 32.605469 64.140625 C 26.019531 58.121094 19.433594 52.101562 12.847656 46.078125" fill="#0a69e1"/></g></g></svg>