<?xml version="1.0" encoding="UTF-8" standalone="no"?><svg xmlns="http://www.w3.org/2000/svg" xmlns:xlink="http://www.w3.org/1999/xlink" fill="#ffffff" height="488.5" preserveAspectRatio="xMidYMid meet" version="1" viewBox="-2.7 11.8 514.7 488.5" width="514.7" zoomAndPan="magnify"><g id="change1_1"><path d="M507.205,245.298l-90.665-76.979c-4.084-3.467-9.641-4.225-14.506-1.974c-4.861,2.251-7.882,6.977-7.882,12.333v27.854 H277.704l-30.398-52.651V75.109h41.185v20.529c0,14.793,12.035,26.828,26.828,26.828h57.059c14.793,0,26.828-12.035,26.828-26.828 V38.581c0-14.793-12.035-26.828-26.828-26.828h-57.059c-14.793,0-26.828,12.035-26.828,26.828v20.529h-49.185c-4.418,0-8,3.582-8,8 v59.06l-13.328-23.085C207.485,84.91,188.691,74.06,167.705,74.06s-39.78,10.851-50.272,29.025L7.831,292.92 c-10.494,18.175-10.494,39.876-0.001,58.05c10.493,18.175,29.287,29.025,50.273,29.025h173.202v64.895c0,4.418,3.582,8,8,8h49.185 v20.529c0,14.793,12.035,26.828,26.828,26.828h57.059c14.793,0,26.828-12.035,26.828-26.828v-57.058 c0-14.793-12.035-26.828-26.828-26.828h-57.059c-14.793,0-26.828,12.035-26.828,26.828v20.529h-41.185v-56.895h30.001 c20.986,0,39.78-10.851,50.273-29.025c8.288-14.354,10.023-30.907,5.22-46.187h61.352v27.854c0,5.357,3.021,10.084,7.885,12.335 c1.854,0.858,3.809,1.278,5.745,1.278c3.142,0,6.232-1.108,8.758-3.253l90.663-76.977c3.094-2.625,4.797-6.305,4.797-10.362 C512,251.603,510.297,247.923,507.205,245.298z M304.49,38.581c0-5.971,4.857-10.828,10.828-10.828h57.059 c5.971,0,10.828,4.857,10.828,10.828v57.058c0,5.971-4.857,10.828-10.828,10.828h-57.059c-5.971,0-10.828-4.857-10.828-10.828 V38.581z M304.49,416.362c0-5.971,4.857-10.828,10.828-10.828h57.059c5.971,0,10.828,4.857,10.828,10.828v57.058 c0,5.97-4.857,10.828-10.828,10.828h-57.059c-5.971,0-10.828-4.857-10.828-10.828V416.362z M313.725,342.971 c-7.602,13.166-21.216,21.025-36.418,21.025H58.104c-15.202,0-28.815-7.86-36.417-21.026c-7.602-13.165-7.602-28.884,0-42.05 l109.602-189.836c7.602-13.165,21.215-21.025,36.417-21.025s28.815,7.86,36.417,21.025L313.725,300.92 C321.325,314.086,321.325,329.806,313.725,342.971z M410.152,327.432v-30.648c0-4.418-3.582-8-8-8h-76.96l-38.25-66.251h115.211 c4.418,0,8-3.582,8-8v-30.648l84.534,71.773L410.152,327.432z M167.705,294.127c-13.667,0-24.786,11.119-24.786,24.786 c0,13.667,11.119,24.785,24.786,24.785s24.786-11.119,24.786-24.785C192.491,305.247,181.372,294.127,167.705,294.127z M167.705,327.699c-4.845,0-8.786-3.941-8.786-8.785c0-4.845,3.941-8.786,8.786-8.786s8.786,3.941,8.786,8.786 C176.491,323.758,172.55,327.699,167.705,327.699z M167.706,280.163c11.414,0,20.678-8.935,21.089-20.341l3.312-91.718 c0.212-5.861-1.828-11.19-5.9-15.413c-4.071-4.222-9.324-6.453-15.188-6.453h-6.624c-5.867,0-11.12,2.232-15.188,6.452 c-4.072,4.22-6.113,9.549-5.902,15.412l3.312,91.72C147.028,271.229,156.293,280.164,167.706,280.163z M160.723,163.797 c1.054-1.093,2.151-1.559,3.671-1.559h6.624c1.52,0,2.617,0.467,3.673,1.561c1.055,1.094,1.481,2.208,1.426,3.727l-3.312,91.72 c-0.099,2.757-2.339,4.917-5.099,4.917h-0.001c-2.76,0-5-2.16-5.1-4.918l-3.312-91.719 C159.239,166.007,159.665,164.893,160.723,163.797z"/></g></svg>