<?xml version="1.0" encoding="UTF-8" standalone="no"?><svg xmlns="http://www.w3.org/2000/svg" xmlns:xlink="http://www.w3.org/1999/xlink" fill="#ffffff" height="88.5" preserveAspectRatio="xMidYMid meet" version="1" viewBox="6.0 6.5 88.5 88.5" width="88.5" zoomAndPan="magnify"><g><g id="change1_6"><path d="M82.977,26.979H16.122c-0.938,0-1.696-0.759-1.696-1.696c0-0.936,0.759-1.695,1.696-1.695h66.854 c0.936,0,1.695,0.759,1.695,1.695C84.672,26.22,83.912,26.979,82.977,26.979z" fill="inherit"/></g><g id="change1_3"><path d="M83.133,77.917H17.816c-0.936,0-1.695-0.759-1.695-1.695c0-0.937,0.76-1.697,1.695-1.697h65.316 c0.936,0,1.696,0.76,1.696,1.697C84.829,77.158,84.068,77.917,83.133,77.917z" fill="inherit"/></g><g id="change1_5"><path d="M50.24,95.02c-2.525,0-6.209-1.713-9.425-9.872c-2.287-5.805-3.904-13.654-4.676-22.696 c-0.04-0.474,0.119-0.941,0.441-1.291c0.319-0.35,0.773-0.548,1.248-0.548h24.816c0.475,0,0.928,0.198,1.249,0.548 s0.481,0.817,0.44,1.291c-0.771,9.044-2.388,16.893-4.673,22.696C56.45,93.307,52.766,95.02,50.24,95.02z M39.689,64.004 c0.793,7.854,2.298,14.866,4.281,19.901c1.935,4.908,4.22,7.724,6.27,7.724c2.051,0,4.334-2.816,6.267-7.724 c1.981-5.034,3.485-12.046,4.278-19.901H39.689z M62.649,40.9c-0.001,0-0.003,0-0.004,0H37.829c-0.475,0-0.928-0.199-1.248-0.549 c-0.322-0.35-0.481-0.818-0.441-1.291c0.771-9.046,2.389-16.897,4.676-22.703c3.214-8.16,6.899-9.873,9.425-9.873 s6.211,1.713,9.422,9.873c2.275,5.778,3.887,13.583,4.663,22.579c0.013,0.087,0.021,0.176,0.021,0.267 C64.346,40.141,63.586,40.9,62.649,40.9z M39.689,37.508h21.096c-0.792-7.858-2.297-14.873-4.278-19.908 c-1.932-4.908-4.216-7.724-6.267-7.724c-2.05,0-4.335,2.815-6.27,7.724C41.987,22.637,40.482,29.652,39.689,37.508z" fill="inherit"/></g><g id="change1_7"><path d="M50.24,95.02c-7.379,0-14.337-3.225-20.121-9.327c-5.499-5.799-9.55-13.984-11.407-23.045 c-0.103-0.5,0.024-1.018,0.348-1.412c0.32-0.396,0.805-0.624,1.313-0.624h59.729c0.509,0,0.991,0.228,1.313,0.624 c0.323,0.394,0.45,0.913,0.349,1.412c-1.857,9.06-5.908,17.245-11.406,23.045C64.573,91.795,57.616,95.02,50.24,95.02z M22.494,64.004c4.035,16.368,15.23,27.625,27.746,27.625c12.512,0,23.706-11.257,27.741-27.625H22.494z M80.105,40.9 c-0.001,0-0.002,0-0.003,0H20.373c-0.509,0-0.993-0.229-1.313-0.624c-0.323-0.396-0.45-0.914-0.348-1.413 c1.857-9.064,5.908-17.25,11.407-23.051C35.902,9.711,42.86,6.485,50.24,6.485c7.377,0,14.333,3.226,20.117,9.327 c5.473,5.775,9.512,13.914,11.381,22.929c0.042,0.146,0.064,0.302,0.064,0.463C81.803,40.141,81.043,40.9,80.105,40.9z M22.494,37.508h55.487C73.947,21.136,62.753,9.877,50.24,9.877C37.724,9.877,26.528,21.136,22.494,37.508z" fill="inherit"/></g><g id="change1_4"><path d="M20.851,46.082l1.257,3.758l0.025,0.066c0.186,0.528,0.303,0.95,0.354,1.265c0.033-0.18,0.077-0.368,0.13-0.565 c0.054-0.197,0.132-0.449,0.231-0.758l1.282-3.766h3.108l-3.571,8.511h-2.125l-1.265-3.852c-0.065-0.219-0.127-0.439-0.18-0.661 c-0.054-0.223-0.104-0.443-0.147-0.662c-0.063,0.337-0.172,0.762-0.33,1.272l-0.016,0.06l-1.256,3.842h-2.124l-3.556-8.511h3.093 l1.272,3.766c0.095,0.275,0.171,0.516,0.228,0.721c0.056,0.205,0.102,0.405,0.134,0.603C17.447,50.89,17.557,50.5,17.725,50 c0.023-0.068,0.039-0.118,0.051-0.152l1.264-3.766H20.851z" fill="inherit"/><path d="M34.73,46.082l1.256,3.758l0.024,0.066c0.187,0.528,0.304,0.95,0.354,1.265c0.033-0.18,0.078-0.368,0.131-0.565 c0.054-0.197,0.131-0.449,0.232-0.758l1.28-3.766h3.109l-3.573,8.511h-2.123l-1.264-3.852c-0.068-0.219-0.129-0.439-0.182-0.661 c-0.055-0.223-0.104-0.443-0.148-0.662c-0.061,0.337-0.17,0.762-0.328,1.272l-0.017,0.06l-1.256,3.842h-2.123l-3.558-8.511h3.095 l1.271,3.766c0.096,0.275,0.172,0.516,0.228,0.721c0.057,0.205,0.102,0.405,0.136,0.603c0.05-0.281,0.16-0.671,0.328-1.171 c0.022-0.068,0.039-0.118,0.05-0.152l1.264-3.766H34.73z" fill="inherit"/><path d="M48.61,46.082l1.254,3.758l0.026,0.066c0.186,0.528,0.304,0.95,0.354,1.265c0.033-0.18,0.076-0.368,0.13-0.565 c0.054-0.197,0.13-0.449,0.232-0.758l1.28-3.766h3.109l-3.573,8.511h-2.123l-1.264-3.852c-0.067-0.219-0.127-0.439-0.182-0.661 c-0.054-0.223-0.103-0.443-0.148-0.662c-0.061,0.337-0.17,0.762-0.327,1.272l-0.018,0.06l-1.255,3.842h-2.124l-3.556-8.511h3.092 l1.272,3.766c0.096,0.275,0.172,0.516,0.228,0.721c0.057,0.205,0.102,0.405,0.136,0.603c0.05-0.281,0.159-0.671,0.327-1.171 c0.024-0.068,0.04-0.118,0.052-0.152l1.265-3.766H48.61z" fill="inherit"/><path d="M54.412,53.21c0-0.477,0.162-0.879,0.483-1.205c0.324-0.325,0.724-0.488,1.202-0.488c0.488,0,0.896,0.163,1.222,0.488 c0.326,0.326,0.488,0.728,0.488,1.205c0,0.478-0.163,0.882-0.493,1.214c-0.327,0.332-0.734,0.497-1.217,0.497 c-0.473,0-0.871-0.165-1.197-0.497C54.575,54.092,54.412,53.688,54.412,53.21z" fill="inherit"/></g><g id="change1_1"><path d="M84.516,55.35H62.471c-0.937,0-1.696-0.759-1.696-1.695c0-0.937,0.76-1.696,1.696-1.696h22.045 c0.936,0,1.696,0.759,1.696,1.696C86.212,54.591,85.451,55.35,84.516,55.35z" fill="inherit"/></g><g id="change1_2"><path d="M91.227,64.004H9.254c-0.759,0-1.427-0.506-1.632-1.238c-0.903-3.21-1.442-6.526-1.601-9.855 C6.02,52.884,6.02,52.857,6.02,52.83v-4.149c0-0.027,0-0.054,0.002-0.081c0.158-3.335,0.697-6.651,1.602-9.856 c0.205-0.731,0.872-1.236,1.631-1.236h81.973c0.76,0,1.428,0.506,1.633,1.238c1.092,3.893,1.645,7.933,1.645,12.009 c0,4.069-0.553,8.109-1.645,12.009C92.654,63.497,91.986,64.004,91.227,64.004z M10.561,60.612h79.358 c0.792-3.216,1.193-6.525,1.193-9.856c0-3.336-0.401-6.646-1.192-9.856H10.561c-0.636,2.558-1.021,5.183-1.149,7.822v4.067 C9.54,55.423,9.925,58.049,10.561,60.612z" fill="inherit"/></g><g id="change1_8"><path d="M50.24,95.02c-11.825,0-22.941-4.604-31.303-12.964c-8.361-8.359-12.967-19.476-12.967-31.3 c0-24.411,19.859-44.271,44.27-44.271c24.406,0,44.264,19.86,44.264,44.271c0,11.824-4.604,22.94-12.963,31.3 C73.181,90.416,62.064,95.02,50.24,95.02z M50.24,9.877c-22.541,0-40.878,18.338-40.878,40.879 c0,22.537,18.337,40.873,40.878,40.873c22.537,0,40.872-18.336,40.872-40.873C91.112,28.215,72.777,9.877,50.24,9.877z" fill="inherit"/></g></g></svg>